<?xml version="1.0" standalone="no"?>
<!DOCTYPE svg PUBLIC "-//W3C//DTD SVG 20010904//EN"
 "http://www.w3.org/TR/2001/REC-SVG-20010904/DTD/svg10.dtd">
<svg version="1.0" xmlns="http://www.w3.org/2000/svg"
 width="1013.000000pt" height="734.000000pt" viewBox="0 0 1013.000000 734.000000"
 preserveAspectRatio="xMidYMid meet">

<g transform="translate(0.000000,734.000000) scale(0.100000,-0.100000)"
fill="#000000" stroke="none">
<path d="M7165 6621 c-34 -20 -55 -48 -74 -101 -7 -19 -20 -50 -28 -67 -14
-34 -28 -111 -17 -101 3 4 7 12 8 20 3 15 14 45 27 73 14 31 0 -33 -17 -77 -7
-21 -16 -52 -18 -70 -6 -36 -8 -40 31 50 25 57 23 30 -2 -41 -14 -37 -25 -73
-25 -79 0 -24 18 8 44 77 15 39 24 56 22 38 -6 -39 11 -54 20 -18 3 14 8 24
11 22 2 -3 1 -17 -3 -32 -5 -19 -12 -25 -24 -22 -13 3 -20 -2 -24 -18 -3 -13
-8 -29 -11 -37 -4 -10 2 -14 21 -13 15 0 29 6 32 14 3 10 0 12 -11 8 -22 -8
-28 5 -11 21 8 7 14 8 14 2 0 -27 19 -5 30 35 7 25 15 44 17 41 2 -2 -3 -29
-12 -61 -9 -31 -14 -59 -11 -62 9 -9 9 -8 46 97 18 52 36 99 41 105 12 12 12
-10 0 -33 -6 -9 -19 -44 -30 -77 -11 -33 -23 -68 -26 -77 -6 -15 -2 -18 22
-18 22 0 32 6 41 28 l12 27 -5 -27 c-6 -31 12 -39 21 -10 3 9 12 29 20 43 7
14 11 28 9 31 -3 3 4 25 15 49 11 24 20 40 20 35 0 -11 -50 -179 -55 -184 -2
-2 -65 -12 -142 -22 -126 -16 -139 -16 -150 -2 -18 22 -16 1 2 -24 8 -12 24
-52 37 -89 15 -47 28 -69 41 -73 14 -4 16 -7 6 -13 -8 -5 -21 -2 -31 8 -16 14
-18 14 -24 -1 -6 -15 -7 -15 -19 0 -11 16 -12 15 -17 -3 -5 -17 -1 -20 28 -17
19 1 34 1 34 -1 0 -2 -32 -21 -72 -42 -98 -51 -171 -125 -187 -189 -7 -27 -17
-59 -22 -72 -5 -13 -9 -30 -9 -39 0 -27 38 14 46 49 9 41 73 150 84 143 5 -3
26 11 47 32 21 21 65 56 98 78 198 132 346 261 388 339 38 69 42 73 57 68 8
-3 33 -18 55 -35 l40 -29 -40 39 -41 40 78 114 c43 63 88 124 98 137 11 12 20
24 20 27 0 3 -111 5 -247 5 -224 0 -251 -2 -278 -19z m358 -56 c-3 -9 -8 -14
-10 -11 -3 3 -2 9 2 15 9 16 15 13 8 -4z m-406 -47 c-3 -8 -6 -5 -6 6 -1 11 2
17 5 13 3 -3 4 -12 1 -19z m64 -19 c-5 -13 -10 -19 -10 -12 -1 15 10 45 15 40
3 -2 0 -15 -5 -28z m339 -20 c-11 -24 -20 -38 -20 -31 0 17 31 84 36 79 3 -2
-5 -24 -16 -48z m-230 37 c0 -3 -4 -8 -10 -11 -5 -3 -10 -1 -10 4 0 6 5 11 10
11 6 0 10 -2 10 -4z m122 -46 c-9 -21 -18 -35 -20 -30 -3 9 25 70 33 70 2 0
-4 -18 -13 -40z m-305 8 c-3 -8 -6 -5 -6 6 -1 11 2 17 5 13 3 -3 4 -12 1 -19z
m358 -53 c-15 -36 -32 -65 -36 -65 -5 0 1 21 12 48 12 26 25 58 30 71 5 13 12
21 16 18 3 -4 -7 -36 -22 -72z m-30 20 c-8 -21 -18 -35 -21 -32 -3 3 2 22 11
42 10 19 20 34 22 31 2 -2 -3 -21 -12 -41z m-172 15 c-3 -12 -8 -19 -11 -16
-5 6 5 36 12 36 2 0 2 -9 -1 -20z m-108 -33 c-4 -15 -13 -31 -21 -38 -10 -8
-9 0 4 29 19 45 27 48 17 9z m206 10 c-10 -9 -11 -8 -5 6 3 10 9 15 12 12 3
-3 0 -11 -7 -18z m-151 -32 c-6 -15 -13 -25 -16 -23 -2 3 1 17 7 32 7 14 14
24 16 22 2 -2 -1 -16 -7 -31z m-37 0 c-3 -9 -8 -14 -10 -11 -3 3 -2 9 2 15 9
16 15 13 8 -4z m217 6 c0 -5 -6 -14 -14 -20 -12 -10 -13 -8 -9 8 5 21 23 30
23 12z m-89 -28 c-12 -20 -14 -14 -5 12 4 9 9 14 11 11 3 -2 0 -13 -6 -23z
m-48 -45 c-19 -67 -41 -117 -42 -98 -1 14 12 56 38 123 18 46 21 30 4 -25z
m100 -20 c-11 -24 -18 -48 -16 -54 2 -6 -4 -17 -13 -25 -15 -12 -16 -11 -10
11 12 40 49 120 54 116 2 -2 -5 -24 -15 -48z m-74 -2 c-6 -21 -13 -36 -16 -33
-3 3 0 22 7 42 7 20 14 35 16 33 2 -2 -1 -21 -7 -42z m105 -9 c-17 -51 -28
-63 -18 -19 11 43 24 75 29 70 3 -2 -2 -26 -11 -51z m39 28 c-3 -9 -8 -14 -10
-11 -3 3 -2 9 2 15 9 16 15 13 8 -4z"/>
<path d="M8372 6535 c12 -13 108 -43 113 -35 4 6 -15 13 -100 37 -11 3 -17 2
-13 -2z"/>
<path d="M8545 6510 c3 -5 10 -10 16 -10 5 0 9 5 9 10 0 6 -7 10 -16 10 -8 0
-12 -4 -9 -10z"/>
<path d="M8500 6498 c0 -4 7 -8 15 -8 8 0 15 4 15 8 0 5 -7 9 -15 9 -8 0 -15
-4 -15 -9z"/>
<path d="M6981 6354 c0 -11 3 -14 6 -6 3 7 2 16 -1 19 -3 4 -6 -2 -5 -13z"/>
<path d="M7010 6311 c0 -16 -6 -32 -12 -34 -10 -4 -10 -6 -1 -6 22 -2 42 52
23 64 -6 4 -10 -7 -10 -24z"/>
<path d="M7585 6270 c7 -14 85 -87 85 -78 0 2 -21 24 -46 48 -25 25 -42 38
-39 30z"/>
<path d="M6985 6250 c-3 -5 1 -10 10 -10 9 0 13 5 10 10 -3 6 -8 10 -10 10 -2
0 -7 -4 -10 -10z"/>
<path d="M8255 6210 c-218 -40 -437 -82 -465 -89 l-35 -8 47 -22 c46 -21 229
-45 288 -37 14 2 35 4 48 5 12 0 22 7 22 14 0 6 18 22 40 35 22 12 47 34 56
47 9 14 25 25 36 25 10 0 17 4 13 10 -3 5 9 14 27 19 l33 9 -35 0 c-19 0 -53
-4 -75 -8z"/>
<path d="M6967 6080 c-3 -11 -1 -20 4 -20 5 0 9 9 9 20 0 11 -2 20 -4 20 -2 0
-6 -9 -9 -20z"/>
<path d="M6992 6080 c0 -14 2 -19 5 -12 2 6 2 18 0 25 -3 6 -5 1 -5 -13z"/>
<path d="M7012 6055 c0 -16 2 -22 5 -12 2 9 2 23 0 30 -3 6 -5 -1 -5 -18z"/>
<path d="M6404 5980 c-21 -8 -175 -170 -217 -227 -12 -17 -42 -57 -67 -88 -45
-59 -89 -118 -105 -144 -19 -32 17 3 39 37 13 21 32 47 42 59 11 11 26 31 34
43 70 104 269 310 299 310 6 0 11 5 11 10 0 12 -7 12 -36 0z"/>
<path d="M6089 5817 c-35 -19 -47 -32 -60 -70 -16 -44 -16 -47 2 -63 18 -16
20 -16 40 10 12 15 41 50 65 78 61 71 40 91 -47 45z"/>
<path d="M6870 5790 c-6 -11 -8 -20 -6 -20 3 0 10 9 16 20 6 11 8 20 6 20 -3
0 -10 -9 -16 -20z"/>
<path d="M6005 5750 c3 -5 8 -10 11 -10 2 0 4 5 4 10 0 6 -5 10 -11 10 -5 0
-7 -4 -4 -10z"/>
<path d="M5980 5701 c0 -7 -4 -10 -9 -7 -5 3 -11 -3 -14 -13 -3 -13 -1 -18 8
-14 15 5 28 33 20 41 -3 3 -5 0 -5 -7z"/>
<path d="M6001 5595 c-12 -19 -21 -40 -18 -47 4 -10 6 -10 6 0 1 8 10 27 22
44 12 16 19 31 17 33 -2 2 -14 -11 -27 -30z"/>
<path d="M5873 5613 c-19 -7 -16 -33 4 -33 9 0 13 3 10 7 -4 3 -2 12 4 20 12
13 5 16 -18 6z"/>
<path d="M6751 5594 c0 -11 3 -14 6 -6 3 7 2 16 -1 19 -3 4 -6 -2 -5 -13z"/>
<path d="M6776 5585 c-9 -26 -7 -32 5 -12 6 10 9 21 6 23 -2 3 -7 -2 -11 -11z"/>
<path d="M4660 5355 c0 -8 4 -15 10 -15 5 0 7 7 4 15 -4 8 -8 15 -10 15 -2 0
-4 -7 -4 -15z"/>
<path d="M4820 5225 c-7 -9 -11 -17 -9 -20 3 -2 10 5 17 15 14 24 10 26 -8 5z"/>
<path d="M5604 5134 c-18 -14 -18 -15 4 -4 12 6 22 13 22 15 0 8 -5 6 -26 -11z"/>
<path d="M5550 5110 c-8 -5 -10 -10 -5 -10 6 0 17 5 25 10 8 5 11 10 5 10 -5
0 -17 -5 -25 -10z"/>
<path d="M4876 5018 c3 -5 10 -6 15 -3 13 9 11 12 -6 12 -8 0 -12 -4 -9 -9z"/>
<path d="M4910 5016 c0 -2 7 -9 15 -16 9 -7 15 -8 15 -2 0 5 -7 12 -15 16 -8
3 -15 4 -15 2z"/>
<path d="M4900 4986 c0 -3 8 -12 17 -22 16 -16 16 -16 -5 -10 -43 14 -21 -5
33 -29 57 -26 197 -66 224 -64 11 0 12 2 4 6 -15 6 -17 33 -3 33 6 0 10 7 10
15 0 11 -11 15 -37 15 -43 0 -115 20 -163 45 -30 15 -32 15 -27 1 8 -20 -7
-21 -23 -1 -12 14 -30 21 -30 11z"/>
<path d="M6968 4963 c3 -19 -1 -26 -17 -30 -12 -3 -20 -11 -18 -17 6 -17 52
-19 66 -2 17 21 6 62 -17 68 -15 4 -18 1 -14 -19z"/>
<path d="M8520 4971 c0 -5 -3 -16 -6 -25 -3 -9 -1 -16 5 -16 6 0 11 7 11 15 0
8 5 15 11 15 5 0 7 5 4 10 -8 13 -25 13 -25 1z"/>
<path d="M8570 4958 c-12 -22 -12 -22 6 -6 10 10 15 20 12 24 -4 3 -12 -5 -18
-18z"/>
<path d="M8140 4910 c-8 -5 -10 -10 -5 -10 6 0 17 5 25 10 8 5 11 10 5 10 -5
0 -17 -5 -25 -10z"/>
<path d="M5375 4891 c-3 -6 -21 -11 -38 -12 -18 -1 -43 -5 -57 -9 -20 -6 -15
-8 25 -9 46 0 97 21 83 35 -3 3 -9 1 -13 -5z"/>
<path d="M5210 4859 c0 -5 5 -7 10 -4 6 3 10 8 10 11 0 2 -4 4 -10 4 -5 0 -10
-5 -10 -11z"/>
<path d="M7685 4840 c-10 -47 1 -69 33 -65 39 5 40 7 7 14 -27 6 -30 10 -28
44 3 45 -3 48 -12 7z"/>
<path d="M5410 4840 c8 -5 20 -10 25 -10 6 0 3 5 -5 10 -8 5 -19 10 -25 10 -5
0 -3 -5 5 -10z"/>
<path d="M8526 4814 c-4 -9 -4 -19 -1 -22 2 -3 7 3 11 12 4 9 4 19 1 22 -2 3
-7 -3 -11 -12z"/>
<path d="M8478 4762 c-1 -5 -27 -27 -56 -50 -37 -29 -48 -42 -35 -42 10 0 41
23 68 50 27 28 44 50 38 50 -6 0 -13 -4 -15 -8z"/>
<path d="M8655 4690 c3 -5 11 -10 16 -10 6 0 7 5 4 10 -3 6 -11 10 -16 10 -6
0 -7 -4 -4 -10z"/>
<path d="M8175 4650 c-16 -7 -17 -9 -3 -9 9 -1 20 4 23 9 7 11 7 11 -20 0z"/>
<path d="M8218 4653 c6 -2 18 -2 25 0 6 3 1 5 -13 5 -14 0 -19 -2 -12 -5z"/>
<path d="M8635 4647 c26 -19 32 -20 52 -8 14 8 13 9 -7 8 -14 0 -34 3 -45 8
l-20 7 20 -15z"/>
<path d="M8710 4653 c0 -5 11 -13 24 -19 23 -11 24 -10 13 7 -12 19 -37 26
-37 12z"/>
<path d="M5810 4611 c0 -5 16 -15 35 -21 19 -6 38 -17 42 -25 5 -7 51 -34 103
-59 99 -49 188 -98 206 -114 6 -5 57 -33 115 -63 57 -29 111 -58 119 -65 14
-11 30 -21 125 -74 l40 -22 -45 43 c-25 23 -37 39 -27 36 11 -4 16 -3 12 4 -4
6 -13 8 -21 5 -15 -6 -149 63 -140 71 3 3 25 -6 50 -21 24 -14 48 -26 53 -26
11 0 -100 65 -237 137 -63 33 -160 85 -215 115 -125 69 -215 102 -215 79z
m130 -41 c8 -5 11 -10 5 -10 -5 0 -17 5 -25 10 -8 5 -10 10 -5 10 6 0 17 -5
25 -10z"/>
<path d="M8760 4571 c0 -6 5 -13 10 -16 6 -3 10 1 10 9 0 9 -4 16 -10 16 -5 0
-10 -4 -10 -9z"/>
<path d="M8700 4536 c0 -8 -26 -39 -57 -70 -46 -44 -54 -56 -38 -56 11 0 30 7
42 15 39 27 88 125 62 125 -5 0 -9 -6 -9 -14z"/>
<path d="M8220 4495 c-8 -2 -31 -6 -50 -10 -19 -3 -43 -12 -53 -19 -17 -13
-15 -19 25 -100 40 -80 45 -85 72 -82 18 2 37 14 49 30 l19 27 -32 52 c-30 48
-31 52 -14 64 10 7 33 16 53 19 30 6 32 8 16 15 -20 8 -58 9 -85 4z"/>
<path d="M8790 4480 c0 -5 5 -10 11 -10 5 0 7 5 4 10 -3 6 -8 10 -11 10 -2 0
-4 -4 -4 -10z"/>
<path d="M8985 4380 c3 -5 8 -10 11 -10 2 0 4 5 4 10 0 6 -5 10 -11 10 -5 0
-7 -4 -4 -10z"/>
<path d="M8893 4313 c-14 -5 -18 -53 -5 -53 20 0 45 28 39 44 -7 16 -13 18
-34 9z"/>
<path d="M8485 4214 c-145 -48 -164 -60 -202 -129 -14 -25 -14 -28 -1 -17 18
14 51 6 42 -12 -3 -6 2 -2 10 8 15 19 22 12 17 -16 0 -4 11 -11 27 -14 15 -4
37 -15 49 -24 17 -14 19 -18 7 -26 -12 -7 -3 -18 41 -52 42 -33 55 -50 56 -70
0 -24 2 -23 15 12 7 21 11 43 7 49 -3 6 -1 7 5 3 7 -4 12 -2 12 4 0 6 -11 16
-25 22 -14 6 -25 14 -25 17 0 3 -27 22 -60 41 -80 47 -86 73 -33 134 34 40 47
47 123 67 47 12 91 26 97 32 7 5 20 7 28 3 9 -3 13 -2 10 4 -11 18 -59 10
-200 -36z m-108 -146 c-3 -8 -6 -5 -6 6 -1 11 2 17 5 13 3 -3 4 -12 1 -19z"/>
<path d="M7880 4170 c25 -4 72 -15 105 -24 32 -8 61 -13 64 -11 2 3 -1 15 -7
27 -6 13 -11 17 -11 10 -1 -9 -7 -10 -18 -4 -10 5 -54 9 -98 10 -70 1 -74 0
-35 -8z"/>
<path d="M8835 4135 c-9 -25 -13 -50 -9 -56 4 -7 3 -9 -3 -6 -6 4 -17 -10 -26
-31 -8 -20 -39 -91 -67 -157 -28 -66 -54 -126 -57 -134 -4 -8 16 8 43 35 27
28 64 62 82 77 28 23 41 49 78 155 24 70 44 128 44 130 0 1 -9 2 -19 2 -11 0
-26 7 -34 15 -13 12 -17 9 -32 -30z"/>
<path d="M5150 4126 c0 -16 35 -80 56 -103 60 -64 105 -123 95 -123 -6 0 -11
-5 -11 -11 0 -8 4 -8 14 0 11 9 30 -5 92 -70 120 -123 226 -199 279 -199 28 0
21 21 -53 157 -8 13 -20 27 -28 30 -8 3 -14 11 -14 19 0 8 -10 14 -25 14 -23
0 -29 8 -26 36 1 6 -27 28 -61 48 -35 20 -92 62 -128 92 -80 69 -148 114 -172
114 -10 0 -18 -2 -18 -4z"/>
<path d="M5102 4039 c-19 -39 -31 -74 -27 -77 3 -4 9 -1 13 5 4 6 16 12 27 15
16 3 20 11 19 46 -1 30 2 40 10 32 18 -18 27 -11 14 13 -7 12 -11 25 -10 30 1
4 -1 7 -6 7 -4 0 -22 -32 -40 -71z"/>
<path d="M9243 4099 c-18 -5 -33 -11 -33 -12 0 -2 23 -3 50 -3 31 0 49 4 47
10 -5 15 -26 16 -64 5z"/>
<path d="M7958 4063 c7 -3 16 -2 19 1 4 3 -2 6 -13 5 -11 0 -14 -3 -6 -6z"/>
<path d="M8000 4054 c80 -35 109 -43 104 -29 -3 8 -13 16 -22 19 -29 8 -98 16
-82 10z"/>
<path d="M9535 3979 c-47 -57 -116 -209 -94 -209 5 0 9 5 9 11 0 6 7 9 15 5 8
-3 15 -1 15 5 0 5 6 9 13 8 6 -1 25 3 40 9 16 7 34 12 41 12 28 0 41 32 38 94
-2 34 -6 69 -8 79 -8 27 -40 20 -69 -14z m65 -71 c0 -23 -3 -29 -9 -19 -8 12
-4 51 5 51 2 0 4 -15 4 -32z"/>
<path d="M9234 3962 c-18 -15 -58 -42 -90 -60 -33 -18 -84 -52 -115 -75 -53
-39 -159 -132 -159 -139 0 -2 21 -4 48 -6 65 -4 211 19 228 35 17 18 18 37 2
26 -7 -4 -17 -8 -23 -9 -84 -11 -125 -13 -125 -5 0 13 135 135 192 174 25 18
54 44 63 60 20 33 18 33 -21 -1z m-245 -195 c-2 -1 -15 -11 -29 -22 l-25 -20
19 23 c11 12 24 22 29 22 6 0 8 -1 6 -3z"/>
<path d="M8288 3933 c7 -3 16 -2 19 1 4 3 -2 6 -13 5 -11 0 -14 -3 -6 -6z"/>
<path d="M8320 3926 c0 -3 14 -12 30 -21 17 -9 30 -13 30 -11 0 3 -13 12 -30
21 -16 9 -30 13 -30 11z"/>
<path d="M8393 3882 c4 -6 22 -21 39 -34 17 -12 28 -17 25 -10 -4 6 -22 21
-39 34 -17 12 -28 17 -25 10z"/>
<path d="M5240 3823 c-37 -50 -77 -119 -45 -78 8 11 21 27 28 35 40 48 68 90
61 90 -5 -1 -25 -22 -44 -47z"/>
<path d="M6366 3814 c-14 -124 -33 -228 -38 -214 -3 8 -8 -57 -12 -145 -3 -88
-11 -207 -16 -265 -12 -127 -11 -206 1 -100 8 71 24 162 70 410 21 112 27 307
11 349 -7 21 -10 16 -16 -35z"/>
<path d="M4956 3828 c-23 -33 -20 -46 9 -40 20 3 25 10 25 33 0 35 -13 37 -34
7z"/>
<path d="M9860 3830 c-18 -12 -2 -12 25 0 13 6 15 9 5 9 -8 0 -22 -4 -30 -9z"/>
<path d="M8489 3806 c14 -14 26 -24 29 -22 7 8 -8 25 -31 37 -21 11 -21 10 2
-15z"/>
<path d="M9808 3813 c7 -3 16 -2 19 1 4 3 -2 6 -13 5 -11 0 -14 -3 -6 -6z"/>
<path d="M4874 3772 c-30 -24 -102 -72 -146 -98 -11 -6 -26 -21 -34 -32 -12
-17 -12 -22 3 -33 11 -9 14 -10 10 -2 -11 18 32 58 46 44 13 -13 57 23 58 48
0 10 2 12 6 4 3 -8 15 -1 34 19 16 18 29 28 30 23 0 -6 5 1 10 14 12 31 9 33
-17 13z"/>
<path d="M8594 3717 c32 -29 156 -107 171 -107 4 0 -32 25 -81 56 -49 31 -96
61 -105 67 -8 7 -1 -1 15 -16z"/>
<path d="M9395 3700 c-8 -13 5 -13 25 0 13 8 13 10 -2 10 -9 0 -20 -4 -23 -10z"/>
<path d="M5120 3659 c0 -5 5 -7 10 -4 6 3 10 8 10 11 0 2 -4 4 -10 4 -5 0 -10
-5 -10 -11z"/>
<path d="M4755 3610 c3 -5 8 -10 11 -10 2 0 4 5 4 10 0 6 -5 10 -11 10 -5 0
-7 -4 -4 -10z"/>
<path d="M8820 3611 c24 -9 168 -15 159 -7 -2 2 -44 6 -94 9 -55 4 -80 3 -65
-2z"/>
<path d="M9048 3613 c12 -2 30 -2 40 0 9 3 -1 5 -23 4 -22 0 -30 -2 -17 -4z"/>
<path d="M4649 3593 c-13 -16 -12 -17 4 -4 16 13 21 21 13 21 -2 0 -10 -8 -17
-17z"/>
<path d="M5025 3528 c-25 -35 -67 -92 -92 -128 -26 -36 -66 -88 -88 -116 -22
-28 -49 -62 -60 -76 -11 -14 -36 -43 -55 -65 -117 -128 -140 -156 -140 -164 0
-11 168 172 238 260 89 111 258 351 247 351 -3 0 -25 -28 -50 -62z"/>
<path d="M7200 3540 c-6 -11 -8 -20 -6 -20 3 0 10 9 16 20 6 11 8 20 6 20 -3
0 -10 -9 -16 -20z"/>
<path d="M7087 3424 c-73 -82 -259 -260 -288 -276 -31 -17 -31 -17 -8 -22 63
-13 81 -4 114 56 17 32 40 66 50 76 32 31 159 174 168 188 15 26 -3 14 -36
-22z"/>
<path d="M7875 3425 c4 -11 9 -32 12 -47 3 -16 9 -28 14 -28 14 0 11 13 -12
56 -11 21 -17 30 -14 19z"/>
<path d="M8183 3421 c-31 -11 -43 -21 -43 -35 0 -16 3 -17 12 -8 7 7 22 12 34
12 32 0 54 10 54 25 0 21 -12 22 -57 6z"/>
<path d="M7825 3350 c-3 -5 1 -10 10 -10 9 0 13 5 10 10 -3 6 -8 10 -10 10 -2
0 -7 -4 -10 -10z"/>
<path d="M7905 3339 c-41 -5 -44 -6 -14 -7 19 -1 40 -7 47 -14 8 -8 15 -9 22
-2 19 19 -5 29 -55 23z"/>
<path d="M4560 3188 c0 -29 -16 -77 -56 -171 -47 -110 -44 -160 10 -150 14 3
27 16 34 37 12 33 27 306 17 306 -3 0 -5 -10 -5 -22z"/>
<path d="M7680 2820 c0 -5 6 -10 13 -11 6 0 3 -4 -8 -9 -17 -8 -15 -9 10 -8
17 0 57 -3 90 -6 76 -9 64 6 -21 28 -72 19 -84 19 -84 6z"/>
<path d="M5913 2294 c-3 -8 -1 -20 6 -27 12 -12 14 -70 5 -140 -5 -36 -9 -43
-19 -34 -7 7 -10 16 -7 21 14 23 13 88 -1 104 -9 9 -17 31 -19 47 -2 19 -9 30
-18 30 -19 0 -18 -47 0 -91 12 -28 11 -34 -9 -63 -19 -27 -21 -34 -10 -47 11
-14 10 -18 -4 -29 -14 -10 -9 -12 35 -9 126 9 176 25 146 48 -7 6 -14 28 -15
49 -1 21 -7 44 -13 52 -6 7 -8 25 -4 39 4 16 2 26 -4 26 -6 0 -13 -10 -16 -22
-2 -13 -4 -6 -2 14 1 24 -3 39 -12 43 -23 8 -32 6 -39 -11z m-19 -215 c3 -3
-4 -5 -14 -6 -11 -1 -20 2 -20 7 0 8 25 8 34 -1z"/>
<path d="M6015 2290 c-8 -13 2 -99 18 -153 10 -36 13 -38 41 -33 17 3 60 1 96
-3 52 -7 68 -6 82 6 19 17 58 9 58 -12 0 -8 -8 -18 -17 -24 -10 -5 -15 -12
-12 -15 3 -3 15 1 27 10 17 12 22 25 22 60 0 24 5 44 10 44 6 0 10 9 10 21 0
11 5 29 10 40 12 22 7 24 -21 9 -14 -8 -18 -17 -13 -34 3 -13 1 -27 -4 -30 -6
-3 -13 8 -17 25 -5 23 -3 34 12 44 10 8 24 15 31 15 21 0 13 20 -8 20 -24 0
-90 -62 -90 -85 0 -33 -18 -12 -23 27 -6 41 3 58 28 58 6 0 3 -5 -5 -10 -11
-7 -12 -12 -4 -20 15 -15 28 3 20 28 -5 15 -14 17 -58 12 l-53 -5 2 -55 c4
-67 -5 -95 -18 -65 -7 15 -8 13 -4 -12 2 -18 0 -33 -5 -33 -6 0 -9 3 -9 8 1 4
1 25 -1 47 -1 31 -3 36 -10 20 -7 -19 -8 -19 -15 -2 -4 10 -5 38 -1 63 l6 44
-40 0 c-21 0 -42 -5 -45 -10z"/>
<path d="M9085 2264 c-7 -10 -27 -17 -55 -18 -45 -2 -110 -24 -110 -38 0 -4
18 -49 41 -100 23 -51 42 -103 44 -115 5 -43 92 -178 166 -257 41 -45 121
-130 176 -191 193 -211 222 -224 55 -26 -20 24 -41 51 -46 60 -14 24 -60 77
-150 171 -44 47 -89 99 -99 117 l-18 32 71 165 c38 91 70 169 70 174 0 5 -29
17 -65 26 -77 19 -68 19 -80 0z"/>
<path d="M5890 2262 c0 -5 7 -17 15 -28 15 -19 20 -8 9 20 -6 17 -24 22 -24 8z"/>
<path d="M6104 2255 c-8 -21 6 -41 17 -24 12 19 11 39 -1 39 -6 0 -13 -7 -16
-15z"/>
<path d="M6386 2235 c-6 -16 -2 -18 31 -9 13 4 20 10 17 15 -9 14 -41 10 -48
-6z"/>
<path d="M5767 2223 c-15 -14 -6 -45 22 -73 24 -25 30 -28 40 -16 9 11 7 23
-10 55 -20 39 -37 50 -52 34z"/>
<path d="M5826 2208 c3 -13 10 -30 15 -38 7 -13 9 -13 14 2 7 19 -10 58 -26
58 -6 0 -8 -9 -3 -22z"/>
<path d="M4960 2190 c0 -14 5 -18 18 -14 48 16 48 16 27 24 -33 14 -45 11 -45
-10z"/>
<path d="M6388 2203 c6 -2 18 -2 25 0 6 3 1 5 -13 5 -14 0 -19 -2 -12 -5z"/>
<path d="M6410 2170 c0 -11 22 -18 38 -13 20 8 14 18 -13 19 -14 1 -25 -2 -25
-6z"/>
<path d="M8906 2167 c3 -10 9 -15 12 -12 3 3 0 11 -7 18 -10 9 -11 8 -5 -6z"/>
<path d="M4993 2135 c-73 -32 -148 -95 -112 -95 6 0 32 -15 58 -33 46 -34 117
-61 133 -51 4 3 8 0 8 -6 0 -20 55 -5 58 16 2 14 1 16 -6 5 -7 -9 -12 -10 -16
-2 -9 14 1 31 17 27 7 -1 9 -1 5 1 -15 8 -8 25 7 19 11 -4 15 1 15 19 0 13 5
27 10 30 18 11 11 53 -12 69 -28 20 -121 20 -165 1z"/>
<path d="M5764 2122 c6 -17 3 -19 -20 -14 -23 4 -26 2 -21 -12 5 -12 -1 -24
-15 -36 l-23 -18 28 5 c16 3 27 1 27 -6 0 -6 -6 -11 -14 -11 -19 0 -25 -20
-15 -47 12 -32 29 -28 29 6 0 35 19 52 48 44 36 -9 25 15 -10 26 l-33 9 30 2
c17 1 33 2 38 1 4 0 7 8 7 19 0 12 -12 26 -31 35 -30 16 -31 16 -25 -3z"/>
<path d="M6270 2095 c-10 -12 -10 -15 4 -15 9 0 16 7 16 15 0 8 -2 15 -4 15
-2 0 -9 -7 -16 -15z"/>
<path d="M8941 2085 c0 -5 8 -26 19 -45 11 -19 19 -30 19 -25 0 6 -8 26 -19
45 -11 19 -19 31 -19 25z"/>
<path d="M5930 2032 c0 -5 14 -21 30 -37 21 -20 30 -24 30 -14 0 9 -10 25 -23
37 -24 23 -37 28 -37 14z"/>
<path d="M5773 2000 c-12 -11 -20 -26 -18 -33 3 -6 -8 -34 -23 -62 -23 -41
-32 -50 -55 -50 -16 1 -27 -5 -27 -12 0 -7 4 -13 10 -13 5 0 6 -7 3 -17 -5
-12 -3 -14 8 -8 11 6 12 5 2 -6 -14 -14 -18 -40 -5 -37 4 1 18 -2 31 -6 31
-11 44 4 32 35 -6 17 -5 32 4 49 7 13 11 30 8 37 -3 7 0 13 5 13 11 0 55 107
50 122 -2 5 -13 0 -25 -12z"/>
<path d="M6070 2010 c-16 -5 -19 -8 -8 -9 9 -1 23 -10 32 -22 19 -28 51 -21
51 11 0 20 -5 25 -25 27 -14 1 -36 -2 -50 -7z"/>
<path d="M5923 1985 c4 -9 7 -23 7 -31 0 -8 9 -14 20 -14 28 0 25 25 -7 45
-24 16 -26 16 -20 0z"/>
<path d="M5830 1968 c0 -13 5 -30 10 -38 7 -11 10 -7 10 17 0 17 -4 35 -10 38
-6 3 -10 -4 -10 -17z"/>
<path d="M6036 1961 c-4 -5 5 -22 19 -38 l25 -28 -2 35 c-3 34 -28 53 -42 31z"/>
<path d="M5990 1935 c0 -24 -3 -27 -25 -23 -29 6 -30 3 -6 -37 15 -25 24 -30
57 -30 32 0 40 4 42 22 2 14 -4 26 -17 33 -12 6 -21 17 -21 24 0 8 -7 19 -15
26 -13 11 -15 8 -15 -15z"/>
<path d="M5810 1923 c0 -23 15 -39 23 -26 3 5 -1 17 -9 28 -14 18 -14 18 -14
-2z"/>
<path d="M5870 1919 c0 -5 5 -7 10 -4 6 3 10 8 10 11 0 2 -4 4 -10 4 -5 0 -10
-5 -10 -11z"/>
<path d="M7068 1889 c-32 -16 -40 -28 -56 -82 -11 -34 -17 -66 -14 -72 3 -5 7
-4 10 3 5 16 29 15 35 0 2 -7 -4 -24 -14 -37 -25 -32 -26 -62 -1 -34 21 23 63
53 75 53 5 0 2 -11 -7 -25 -10 -15 -12 -25 -6 -25 6 0 8 -4 5 -10 -3 -6 1 -7
9 -4 24 9 20 -4 -25 -91 -36 -71 -81 -136 -126 -180 -13 -13 -14 -22 -4 -48 6
-18 9 -22 7 -9 -3 16 12 44 55 98 62 77 109 156 109 181 0 8 5 11 10 8 6 -3
10 3 10 14 0 11 7 26 15 35 8 8 15 19 15 25 0 6 5 11 10 11 14 0 60 98 60 126
0 35 -66 84 -112 84 -13 -1 -40 -10 -60 -21z"/>
<path d="M6798 1893 c6 -2 18 -2 25 0 6 3 1 5 -13 5 -14 0 -19 -2 -12 -5z"/>
<path d="M5851 1877 c-1 -10 -8 -20 -16 -23 -18 -7 -20 -65 -3 -82 18 -18 46
-14 53 7 3 10 -3 41 -14 67 -11 27 -20 41 -20 31z"/>
<path d="M5886 1881 c-11 -18 6 -41 30 -41 30 0 30 7 2 31 -24 22 -25 22 -32
10z"/>
<path d="M6686 1824 c-17 -45 -9 -54 52 -54 31 0 75 -3 97 -5 36 -5 37 -4 15
6 -14 6 -39 18 -56 26 -18 8 -48 15 -67 15 -26 0 -34 4 -30 14 3 8 3 14 0 14
-3 0 -8 -7 -11 -16z"/>
<path d="M5750 1821 c0 -5 3 -17 6 -26 5 -12 9 -14 14 -4 5 7 6 18 3 26 -6 15
-23 18 -23 4z"/>
<path d="M6885 1810 c-3 -5 -4 -10 -1 -10 2 0 11 -3 19 -6 8 -3 17 2 20 10 7
18 -27 23 -38 6z"/>
<path d="M5620 1793 c-34 -14 -71 -66 -69 -100 0 -16 1 -16 9 2 8 19 9 19 9
-3 1 -13 5 -20 11 -17 6 3 10 0 11 -7 0 -7 16 -26 36 -42 28 -24 36 -27 44
-15 7 12 9 12 9 -1 0 -9 -5 -21 -12 -28 -9 -9 -6 -11 10 -7 19 3 21 1 11 -16
-5 -11 -7 -30 -4 -42 6 -21 5 -21 -15 3 -11 14 -35 46 -52 72 -17 27 -33 46
-35 44 -6 -6 24 -62 64 -121 28 -40 41 -50 64 -52 17 -1 37 -7 45 -14 12 -10
17 -8 28 7 8 10 12 22 9 27 -13 22 57 127 86 127 5 0 8 7 7 16 -1 11 13 21 42
29 47 14 141 30 157 27 16 -4 -37 35 -78 57 -46 25 -82 26 -128 7 -29 -12 -37
-12 -54 0 -28 21 -44 17 -75 -16 -23 -25 -36 -30 -75 -30 l-47 0 7 50 c4 28 5
50 3 49 -1 0 -10 -3 -18 -6z m122 -285 c-7 -7 -12 -8 -12 -2 0 14 12 26 19 19
2 -3 -1 -11 -7 -17z m8 -28 c0 -5 -7 -7 -15 -4 -8 4 -15 8 -15 10 0 2 7 4 15
4 8 0 15 -4 15 -10z"/>
<path d="M6835 1710 c4 -6 11 -8 16 -5 14 9 11 15 -7 15 -8 0 -12 -5 -9 -10z"/>
<path d="M6870 1705 c0 -8 2 -15 4 -15 2 0 6 7 10 15 3 8 1 15 -4 15 -6 0 -10
-7 -10 -15z"/>
<path d="M6658 1673 c7 -3 16 -2 19 1 4 3 -2 6 -13 5 -11 0 -14 -3 -6 -6z"/>
<path d="M6690 1671 c0 -6 12 -11 28 -11 15 0 42 -4 60 -9 17 -5 32 -6 32 -1
0 5 -13 11 -30 14 -16 3 -43 9 -60 12 -18 3 -30 1 -30 -5z"/>
<path d="M6971 1663 c0 -6 -4 -20 -7 -30 -5 -14 -4 -15 5 -7 7 7 11 20 8 30
-3 11 -5 14 -6 7z"/>
<path d="M6841 1564 c0 -11 3 -14 6 -6 3 7 2 16 -1 19 -3 4 -6 -2 -5 -13z"/>
<path d="M6941 1434 c0 -11 3 -14 6 -6 3 7 2 16 -1 19 -3 4 -6 -2 -5 -13z"/>
<path d="M5860 1404 c57 -17 72 -17 40 1 -14 8 -38 14 -55 14 -27 0 -25 -2 15
-15z"/>
<path d="M6410 1346 c0 -2 7 -7 16 -10 8 -3 12 -2 9 4 -6 10 -25 14 -25 6z"/>
<path d="M6500 1300 c19 -11 40 -19 45 -19 6 0 -6 8 -25 19 -19 11 -39 19 -45
19 -5 0 6 -8 25 -19z"/>
<path d="M8808 1183 c-28 -103 -75 -241 -88 -258 -18 -24 -18 -65 1 -137 10
-43 22 -99 25 -125 3 -27 7 -50 10 -52 8 -8 84 167 94 216 5 29 12 142 15 252
5 189 5 201 -12 201 -15 0 -24 -20 -45 -97z"/>
</g>
</svg>
